<?xml version="1.0" standalone="no"?>
<!DOCTYPE svg PUBLIC "-//W3C//DTD SVG 20010904//EN"
 "http://www.w3.org/TR/2001/REC-SVG-20010904/DTD/svg10.dtd">
<svg version="1.0" xmlns="http://www.w3.org/2000/svg"
 width="640.000000pt" height="640.000000pt" viewBox="0 0 640.000000 640.000000"
 preserveAspectRatio="xMidYMid meet">

<g transform="translate(0.000000,640.000000) scale(0.100000,-0.100000)"
fill="#000000" stroke="none">
<path d="M0 3200 l0 -3200 3200 0 3200 0 0 3200 0 3200 -3200 0 -3200 0 0
-3200z m3347 1399 c151 -160 361 -284 573 -338 36 -9 71 -20 78 -24 34 -22 -3
-112 -60 -147 -32 -19 -52 -20 -646 -20 -550 0 -618 2 -649 16 -19 10 -41 27
-49 39 -22 34 -35 86 -25 103 5 10 48 25 103 39 182 44 394 169 538 316 35 37
70 67 77 67 6 0 33 -23 60 -51z m553 -623 c0 -41 32 -72 123 -117 l59 -31 -5
-45 c-3 -31 -14 -54 -33 -75 -57 -60 -34 -58 -747 -58 -360 0 -669 3 -687 7
-44 8 -106 71 -112 114 -8 51 0 64 52 87 69 30 120 78 120 111 0 15 3 31 7 34
3 4 280 7 615 7 l608 0 0 -34z m80 -388 c3 -3 5 -93 5 -200 l0 -193 -202 -3
-203 -2 0 44 c0 111 -86 236 -186 270 -192 65 -376 -54 -400 -257 l-7 -57
-198 0 -199 0 0 198 c0 109 2 201 4 203 7 7 1381 4 1386 -3z m93 -479 c6 -9 7
-24 4 -33 -6 -15 -74 -16 -792 -16 -432 0 -785 2 -785 4 0 2 -3 11 -6 19 -3 8
2 22 11 31 15 15 85 16 787 14 697 -3 772 -5 781 -19z m-1752 -246 c4 -4 26
-51 49 -103 23 -52 54 -122 69 -155 16 -33 32 -71 37 -85 6 -17 11 36 14 164
l5 190 33 -1 c17 -1 52 -2 77 -2 l45 -1 0 -410 0 -410 -75 0 -75 0 -24 48
c-13 26 -47 102 -76 169 -80 189 -79 189 -80 -30 l0 -188 -77 3 -78 3 -3 400
c-1 220 0 405 2 410 4 12 145 10 157 -2z m585 10 c6 -5 26 -57 44 -118 18 -60
36 -114 40 -118 5 -5 15 16 24 47 9 31 23 82 32 114 9 31 20 62 25 68 12 15
150 14 155 -1 3 -6 -32 -135 -76 -286 l-80 -276 0 -127 0 -127 -77 3 -78 3 -5
145 c-4 101 -11 163 -24 205 -59 191 -135 459 -131 465 6 10 138 12 151 3z
m584 -310 l0 -304 25 -24 c33 -33 93 -34 123 -2 21 22 21 32 24 327 l3 305 74
3 c41 2 77 -1 80 -7 3 -5 8 -158 10 -340 l3 -331 -68 -70 -67 -70 -116 0 -115
0 -68 67 -68 67 0 343 0 342 63 3 c107 5 97 38 97 -309z m1837 156 c35 -79 72
-162 82 -184 l20 -40 0 187 1 186 76 4 c42 2 78 1 80 -1 2 -2 4 -188 4 -413
l0 -408 -75 0 -75 0 -29 58 c-15 31 -52 112 -81 180 -29 67 -56 125 -61 128
-5 3 -9 -77 -9 -181 l0 -186 -77 3 -78 3 -3 407 -2 407 57 3 c103 5 99 9 170
-153z m-4185 -11 l3 -163 85 0 85 0 3 163 2 163 78 -3 77 -3 0 -405 0 -405
-77 -3 -78 -3 0 166 0 165 -90 0 -90 0 0 -165 0 -166 -77 3 -78 3 -3 408 -2
407 80 0 80 0 2 -162z m840 -228 c42 -212 77 -395 78 -407 0 -22 -4 -23 -79
-23 l-78 0 -7 30 -6 31 -72 -3 c-68 -3 -73 -5 -78 -28 -6 -24 -10 -25 -84 -28
l-79 -3 6 43 c3 24 38 209 78 411 l72 368 86 -3 86 -3 77 -385z m2367 328 l61
-63 0 -119 c0 -109 -2 -122 -22 -143 l-21 -23 21 -23 c20 -21 22 -34 22 -143
l0 -120 -63 -62 -63 -62 -180 2 -179 3 -3 408 -2 407 184 0 185 0 60 -62z
m573 -328 c42 -212 77 -395 78 -407 0 -22 -4 -23 -79 -23 l-79 0 -7 30 -7 31
-71 -3 c-67 -3 -72 -5 -77 -28 -6 -24 -9 -25 -85 -25 -65 0 -80 3 -78 15 1 8
36 192 79 408 l77 393 86 -3 85 -3 78 -385z m-2488 -610 c17 -16 18 -23 7 -46
-10 -22 -9 -30 4 -44 19 -21 19 -50 1 -75 -10 -13 -30 -20 -75 -23 l-61 -4 0
105 c0 75 4 107 13 111 24 10 92 -4 111 -24z m87 -28 l21 -47 24 53 c23 50 44
68 44 37 0 -9 -10 -35 -22 -58 -12 -23 -25 -64 -28 -92 -7 -64 -33 -71 -37
-10 -2 22 -15 66 -29 98 -23 53 -25 85 -4 72 5 -3 19 -27 31 -53z m219 1 l0
-45 36 44 c20 23 42 46 49 51 25 14 25 -11 0 -41 -14 -16 -25 -35 -25 -41 0
-6 14 -35 30 -64 34 -61 36 -67 15 -67 -8 0 -24 17 -34 38 -35 65 -37 67 -55
53 -10 -8 -16 -29 -16 -52 0 -28 -4 -39 -15 -39 -12 0 -15 18 -15 103 0 57 3
107 6 110 14 14 24 -6 24 -50z m180 6 l0 -39 45 0 45 0 0 41 c0 33 3 40 18 37
15 -3 17 -16 17 -103 0 -82 -3 -100 -15 -100 -11 0 -16 13 -18 48 l-3 47 -45
0 -44 0 0 -50 c0 -38 -4 -50 -15 -50 -12 0 -15 18 -15 103 0 57 3 107 6 110
14 13 24 -6 24 -44z m290 0 c0 -21 4 -39 8 -39 4 0 25 21 46 46 26 31 42 42
49 35 7 -7 1 -20 -17 -41 -14 -17 -26 -36 -26 -40 0 -5 14 -31 30 -57 17 -26
30 -53 30 -60 0 -27 -21 -11 -51 37 -17 28 -33 50 -36 50 -14 0 -32 -38 -33
-68 0 -22 -4 -32 -12 -30 -13 5 -24 177 -13 205 9 26 25 2 25 -38z m194 29 c7
-13 22 -48 31 -78 l18 -54 30 77 c16 45 34 76 41 74 11 -4 26 -178 18 -205
-11 -33 -27 1 -32 64 l-5 69 -20 -58 c-11 -33 -24 -60 -29 -60 -6 -1 -19 21
-31 50 -11 28 -24 55 -28 59 -4 4 -7 -25 -7 -65 0 -54 -3 -72 -12 -69 -9 3
-14 33 -16 89 -3 89 2 129 18 129 5 0 16 -10 24 -22z m304 -86 c37 -113 37
-112 17 -112 -8 0 -17 11 -21 25 -13 51 -79 54 -96 4 -9 -26 -38 -42 -38 -21
0 16 66 197 74 204 20 14 33 -7 64 -100z m180 90 c2 -6 -9 -12 -25 -14 -28 -3
-28 -3 -33 -92 -3 -57 -9 -91 -17 -93 -9 -3 -13 21 -15 89 l-3 93 -27 3 c-17
2 -28 9 -28 18 0 12 13 14 72 10 40 -2 74 -9 76 -14z m174 -12 c58 -71 17
-190 -65 -190 -44 0 -65 17 -81 64 -28 82 22 164 93 152 20 -3 44 -15 53 -26z
m168 -89 c-41 -130 -53 -130 -96 -6 -38 106 -39 118 -18 113 10 -2 23 -27 36
-68 10 -36 22 -72 25 -80 3 -8 16 20 28 63 28 92 34 102 47 89 6 -6 -2 -45
-22 -111z m-1102 7 c-2 -70 -7 -103 -15 -106 -10 -3 -13 22 -13 102 0 89 3
106 15 106 13 0 15 -16 13 -102z"/>
<path d="M1801 2383 c-7 -38 -15 -78 -18 -90 -5 -21 -2 -23 37 -23 35 0 41 3
36 18 -3 9 -10 46 -17 82 -6 36 -15 68 -18 73 -4 4 -13 -23 -20 -60z"/>
<path d="M4083 2704 c-2 -6 -3 -44 -1 -85 l3 -74 49 -3 c67 -4 104 12 115 53
11 40 4 79 -18 98 -20 19 -142 27 -148 11z"/>
<path d="M4082 2298 l3 -83 59 -3 c53 -3 62 0 88 25 25 24 28 33 24 67 -9 63
-28 76 -108 76 l-69 0 3 -82z"/>
<path d="M4736 2368 c-9 -46 -16 -86 -16 -90 0 -5 18 -8 41 -8 33 0 40 3 35
15 -3 8 -11 46 -17 83 -6 37 -15 71 -19 75 -4 4 -14 -29 -24 -75z"/>
<path d="M2340 1840 c0 -26 3 -30 29 -30 37 0 59 24 41 45 -7 8 -25 15 -41 15
-26 0 -29 -4 -29 -30z"/>
<path d="M2340 1744 c0 -34 1 -35 36 -32 71 6 68 68 -2 68 -32 0 -34 -2 -34
-36z"/>
<path d="M3642 1821 c-17 -47 -15 -51 13 -51 28 0 30 11 11 55 l-12 30 -12
-34z"/>
<path d="M3956 1848 c-9 -12 -16 -38 -16 -58 0 -105 111 -106 114 -1 1 70 -63
109 -98 59z"/>
</g>
</svg>
